<svg width="111" height="25" viewBox="0 0 111 25" fill="none" xmlns="http://www.w3.org/2000/svg">
<path d="M19.1564 18.144C19.1564 19.424 18.8257 20.5013 18.1644 21.376C17.503 22.2293 16.607 22.88 15.4764 23.328C14.367 23.776 13.151 24 11.8284 24H0.852375V1.28H13.0124C14.079 1.28 14.9964 1.568 15.7644 2.144C16.5537 2.69867 17.151 3.424 17.5564 4.32C17.983 5.19467 18.1964 6.112 18.1964 7.072C18.1964 8.16 17.919 9.19467 17.3644 10.176C16.8097 11.1573 15.999 11.8827 14.9324 12.352C16.2337 12.736 17.2577 13.4293 18.0044 14.432C18.7724 15.4347 19.1564 16.672 19.1564 18.144ZM14.7084 17.312C14.7084 16.736 14.591 16.224 14.3564 15.776C14.1217 15.3067 13.8017 14.944 13.3964 14.688C13.0124 14.4107 12.5644 14.272 12.0524 14.272H5.26838V20.256H11.8284C12.3617 20.256 12.8417 20.128 13.2684 19.872C13.7164 19.5947 14.0684 19.232 14.3244 18.784C14.5804 18.336 14.7084 17.8453 14.7084 17.312ZM5.26838 5.056V10.784H11.1564C11.647 10.784 12.095 10.6667 12.5004 10.432C12.9057 10.1973 13.2257 9.86667 13.4604 9.44C13.7164 9.01333 13.8444 8.50133 13.8444 7.904C13.8444 7.328 13.727 6.82667 13.4924 6.4C13.279 5.97333 12.9804 5.64267 12.5964 5.408C12.2337 5.17333 11.8177 5.056 11.3484 5.056H5.26838ZM22.1864 24V7.232H26.4744V24H22.1864ZM22.1864 4.896V0.639999H26.4744V4.896H22.1864ZM40.3906 23.136C40.028 23.2853 39.5906 23.456 39.0786 23.648C38.5666 23.84 38.012 23.9893 37.4146 24.096C36.8386 24.224 36.252 24.288 35.6546 24.288C34.8653 24.288 34.14 24.1493 33.4786 23.872C32.8173 23.5947 32.284 23.1573 31.8786 22.56C31.4946 21.9413 31.3026 21.1413 31.3026 20.16V10.528H29.0946V7.232H31.3026V1.792H35.5906V7.232H39.1106V10.528H35.5906V18.72C35.612 19.296 35.772 19.712 36.0706 19.968C36.3693 20.224 36.7426 20.352 37.1906 20.352C37.6386 20.352 38.076 20.2773 38.5026 20.128C38.9293 19.9787 39.2706 19.8507 39.5266 19.744L40.3906 23.136Z" fill="#FBFBFB"/>
<path d="M61.3439 18.144C61.3439 19.424 61.0132 20.5013 60.3519 21.376C59.6905 22.2293 58.7945 22.88 57.6639 23.328C56.5545 23.776 55.3385 24 54.0159 24H43.0399V1.28H55.1999C56.2665 1.28 57.1839 1.568 57.9519 2.144C58.7412 2.69867 59.3385 3.424 59.7439 4.32C60.1705 5.19467 60.3839 6.112 60.3839 7.072C60.3839 8.16 60.1065 9.19467 59.5519 10.176C58.9972 11.1573 58.1865 11.8827 57.1199 12.352C58.4212 12.736 59.4452 13.4293 60.1919 14.432C60.9599 15.4347 61.3439 16.672 61.3439 18.144ZM56.8959 17.312C56.8959 16.736 56.7785 16.224 56.5439 15.776C56.3092 15.3067 55.9892 14.944 55.5839 14.688C55.1999 14.4107 54.7519 14.272 54.2399 14.272H47.4559V20.256H54.0159C54.5492 20.256 55.0292 20.128 55.4559 19.872C55.9039 19.5947 56.2559 19.232 56.5119 18.784C56.7679 18.336 56.8959 17.8453 56.8959 17.312ZM47.4559 5.056V10.784H53.3439C53.8345 10.784 54.2825 10.6667 54.6879 10.432C55.0932 10.1973 55.4132 9.86667 55.6479 9.44C55.9039 9.01333 56.0319 8.50133 56.0319 7.904C56.0319 7.328 55.9145 6.82667 55.6799 6.4C55.4665 5.97333 55.1679 5.64267 54.7839 5.408C54.4212 5.17333 54.0052 5.056 53.5359 5.056H47.4559ZM64.3419 0.639999H68.6299V18.624C68.6299 19.392 68.7579 19.9147 69.0139 20.192C69.2699 20.448 69.6219 20.576 70.0699 20.576C70.4112 20.576 70.7632 20.5333 71.1259 20.448C71.4885 20.3627 71.8085 20.256 72.0859 20.128L72.6619 23.392C72.0859 23.6693 71.4139 23.8827 70.6459 24.032C69.8779 24.1813 69.1845 24.256 68.5659 24.256C67.2219 24.256 66.1765 23.904 65.4299 23.2C64.7045 22.4747 64.3419 21.4507 64.3419 20.128V0.639999ZM74.3701 17.728V7.232H78.6581V16.8C78.6581 18.08 78.8928 19.0507 79.3621 19.712C79.8315 20.352 80.5248 20.672 81.4421 20.672C81.9968 20.672 82.5408 20.5653 83.0741 20.352C83.6288 20.1173 84.1301 19.776 84.5781 19.328C85.0475 18.88 85.4421 18.3147 85.7621 17.632V7.232H90.0501V19.2C90.0501 19.648 90.1248 19.968 90.2741 20.16C90.4448 20.352 90.7115 20.4693 91.0741 20.512V24C90.6475 24.064 90.2848 24.1067 89.9861 24.128C89.7088 24.1707 89.4528 24.192 89.2181 24.192C88.4501 24.192 87.8208 24.0213 87.3301 23.68C86.8608 23.3173 86.5835 22.8267 86.4981 22.208L86.4021 20.864C85.6555 21.9947 84.6955 22.8587 83.5221 23.456C82.3488 24.032 81.0581 24.32 79.6501 24.32C77.9221 24.32 76.6101 23.7653 75.7141 22.656C74.8181 21.5253 74.3701 19.8827 74.3701 17.728ZM102.087 24.32C100.743 24.32 99.5274 24.096 98.4394 23.648C97.3514 23.1787 96.4234 22.5493 95.6554 21.76C94.8874 20.9493 94.29 20.032 93.8634 19.008C93.458 17.9627 93.2554 16.864 93.2554 15.712C93.2554 14.112 93.6074 12.6507 94.3114 11.328C95.0367 10.0053 96.0607 8.94933 97.3834 8.16C98.7274 7.34933 100.306 6.944 102.119 6.944C103.954 6.944 105.522 7.34933 106.823 8.16C108.125 8.94933 109.117 10.0053 109.799 11.328C110.503 12.6293 110.855 14.0373 110.855 15.552C110.855 15.808 110.845 16.0747 110.823 16.352C110.802 16.608 110.781 16.8213 110.759 16.992H97.7994C97.8847 17.8453 98.13 18.592 98.5354 19.232C98.962 19.872 99.4954 20.3627 100.135 20.704C100.797 21.024 101.501 21.184 102.247 21.184C103.101 21.184 103.901 20.9813 104.647 20.576C105.415 20.1493 105.938 19.5947 106.215 18.912L109.895 19.936C109.49 20.7893 108.903 21.5467 108.135 22.208C107.389 22.8693 106.503 23.392 105.479 23.776C104.455 24.1387 103.325 24.32 102.087 24.32ZM97.7034 14.272H106.471C106.386 13.4187 106.141 12.6827 105.735 12.064C105.351 11.424 104.839 10.9333 104.199 10.592C103.559 10.2293 102.845 10.048 102.055 10.048C101.287 10.048 100.583 10.2293 99.9434 10.592C99.3247 10.9333 98.8127 11.424 98.4074 12.064C98.0234 12.6827 97.7887 13.4187 97.7034 14.272Z" fill="#33A7F9"/>
</svg>
