<svg width="71" height="71" viewBox="0 0 71 71" fill="none" xmlns="http://www.w3.org/2000/svg">
<circle cx="35.5" cy="35.5" r="35.5" fill="white" fill-opacity="0.16"/>
<path d="M19.75 53C19.75 53.6904 20.3096 54.25 21 54.25C21.6904 54.25 22.25 53.6904 22.25 53V41.6667C22.25 40.9763 21.6904 40.4167 21 40.4167C20.3096 40.4167 19.75 40.9763 19.75 41.6667V53ZM33.9167 53C33.9167 53.6904 34.4763 54.25 35.1667 54.25C35.857 54.25 36.4167 53.6904 36.4167 53V30.3333C36.4167 29.643 35.857 29.0833 35.1667 29.0833C34.4763 29.0833 33.9167 29.643 33.9167 30.3333V53ZM48.0833 53C48.0833 53.6904 48.643 54.25 49.3333 54.25C50.0237 54.25 50.5833 53.6904 50.5833 53V19C50.5833 18.3096 50.0237 17.75 49.3333 17.75C48.643 17.75 48.0833 18.3096 48.0833 19V53Z" stroke="#33A7F9" stroke-width="2.5" stroke-linecap="round" stroke-linejoin="round"/>
</svg>
